<?xml version="1.0" encoding="utf-8"?>
<!-- Generator: Adobe Illustrator 19.1.0, SVG Export Plug-In . SVG Version: 6.00 Build 0)  -->
<svg version="1.1" id="Layer_1" xmlns="http://www.w3.org/2000/svg" xmlns:xlink="http://www.w3.org/1999/xlink" x="0px" y="0px"
	 viewBox="0 0 1280 800" style="enable-background:new 0 0 1280 800;" xml:space="preserve">
<style type="text/css">
	.st0{fill:none;stroke:#000000;stroke-miterlimit:10;}
	.st1{fill:#C69C6D;stroke:#000000;stroke-miterlimit:10;}
	.st2{fill:#00BF2C;stroke:#000000;stroke-miterlimit:10;}
	.st3{fill:#00BF2C;}
	.st4{fill:#CE8CFF;stroke:#000000;stroke-miterlimit:10;}
	.st5{fill:#CE8CFF;}
	.st6{fill:#C1272D;stroke:#000000;stroke-miterlimit:10;}
	.st7{fill:#FFFFFF;stroke:#000000;stroke-miterlimit:10;}
	.st8{fill:#C1272D;}
	.st9{fill:#9CB0CF;stroke:#000000;stroke-miterlimit:10;}
	.st10{fill:#9CB0CF;}
	.st11{stroke:#000000;stroke-miterlimit:10;}
	.st12{fill:#C1272D;stroke:#C1272D;stroke-miterlimit:10;}
	.st13{fill:none;stroke:#C1272D;stroke-miterlimit:10;}
	.st14{fill:#060055;stroke:#000000;stroke-miterlimit:10;}
	.st15{fill:#060055;}
</style>
<g>
	<path class="st0" d="M203,154.5c-0.9,4.2-1.8,11-0.5,19c0.3,2,3.4,19.5,17.5,31.5c15,12.7,24.4,3.8,36.5,13.5
		c20.6,16.5,6.4,52.9,25,64c7.5,4.5,16.9,2.8,24,0.5"/>
	<path class="st0" d="M188.5,163.5c3.4,0.3,8.2,1.1,13.5,3.5c16,7.4,26.3,25.4,26.5,41c0.3,22.7-21.1,29.1-21,45
		c0.1,13.4,15.3,30.9,76,51.5"/>
	<path class="st0" d="M179,170.5c3.2-1.1,7.6-2.1,11,0c7.2,4.4,0.9,17.1,6,29.5c7.1,17.3,26.5,10.6,41,31c5.9,8.3,8.9,18.1,14,35
		c4.3,14,4,17.9,8,22c5.5,5.5,17.1,9.5,45,1"/>
	<path class="st0" d="M188.6,134.5c-0.8,7.8-0.6,18.7,6.1,28c10,13.9,24.1,10.2,37.8,24.9c13.5,14.4,14.2,33.6,14.2,38.2
		c0.1,18.3-9.2,23.4-6.8,34.4c2,8.8,11.3,20.4,46.6,30"/>
	<path class="st0" d="M178.5,160.5c1.6,2.7,4,6.7,7,11.5c11.4,18.3,15.4,21.9,18.5,29c6.3,14.3-2.7,17.6,2,33
		c0.3,1,6.5,20.3,24.5,29.5c12.8,6.5,19.2,1.5,31.5,7c8.3,3.7,18.2,11.6,26,30"/>
</g>
<path class="st1" d="M84.8,95.5c-1,2.9-5.4,15.3-3.7,23.9c3.5,18.7,37.3,30.1,55,17.6c2.1-1.5,4.7-3.4,5.9-6.9
	c2.9-8.7-5.1-19.7-18.7-38.4c-4.9-6.7-6.4-8.2-8.5-9.4c-8.2-4.8-20.1-3.1-26.2,5C86.9,89.5,86.2,91.5,84.8,95.5z"/>
<path class="st2" d="M84.5,97.5c9.3-8.3,35,3.2,53.5,24"/>
<path class="st2" d="M81.8,103.6c0.8,18,18.1,26.4,50.7,24.9"/>
<path class="st3" d="M132.5,117.5c-0.5,0-3-1.8-3.6-2c-1.9-0.7-3.8-1-5.7-1.7c-4.3-1.4-8.5-3.4-12.7-5.2c-4.1-1.7-8.3-3.3-12.3-5.2
	c-3.6-1.7-6.3-4.5-10.1-6c-6.2-2.3-8.9,7.3-2.8,9.6c1.9,0.7,3.4,2.5,5.1,3.6c1.8,1.1,3.8,1.9,5.7,2.7c4.6,1.9,9.1,3.9,13.7,5.8
	c4,1.7,8,3.6,12.2,4.8c3.6,1,6.6,3.8,10.5,3.6C139.1,127.1,139.1,117.1,132.5,117.5z"/>
<line class="st0" x1="82" y1="105.6" x2="84.2" y2="94.4"/>
<path class="st1" d="M126.5,51.1c-8,10-9.3,23-7.4,31.9c5.5,26.2,44.5,45.1,60.6,34c14.6-10,12.2-45.7-5.3-63.8
	c-1.9-2-16.8-17-33-12.8C133.3,42.6,128.5,48.6,126.5,51.1z"/>
<path class="st4" d="M130.8,46.4c0,38.1,20.2,73.4,42.1,73.4"/>
<path class="st4" d="M141.4,40.5c28,10.6,43.1,48.7,31.5,79.3"/>
<path class="st5" d="M169,106.3c0,0-0.3,0-0.4,0c0,0-0.1,0-0.1-0.1c0.5,0.2-0.3-2-0.5-2.7c-0.6-1.9-1.4-3.3-2.6-4.9
	c-2.8-3.7-4.2-8.6-5.7-13c-3.2-9-4-18.9-8.9-27.3c-0.5-0.8-1.1-1.4-1.7-1.8c-0.1-0.5-0.2-1.1-0.4-1.6c-0.9-2.5-2.4-4.2-4.3-5.1
	c2.3-2.8,1.2-8.5-3.3-8.5c-1.9,0-3.3,0.8-4.2,1.9c-0.6,0.2-1.2,0.5-1.7,0.9c-4.6,1-4.8,7.8-0.8,9.5c-0.1,0.8,0.1,1.6,0.4,2.3
	c-0.4,0.9-0.5,2-0.2,3.1c1.1,4.5,2.7,8.6,4.7,12.8c1,2,3,2.7,4.9,2.4c0.6,1.6,1.1,3.2,1.4,4.9c0.4,1.8,1.4,2.8,2.7,3.3
	c1.2,4,2.6,8,4.1,11.9c0.9,2.2,1.7,4.5,2.7,6.6c0.9,1.8,2.4,3.2,3.2,4.9c1.7,3.7,1.4,6.4,5,9.1c0.3,0.2,0.6,0.4,1,0.5
	c0.6,1.7,2.1,3,4.4,3c3.6,0,5.2-3.2,4.7-6C173.9,109.6,172.4,106.3,169,106.3z"/>
<path class="st1" d="M156.5,92.3c-15.5-4-31.1,5.3-39.4,14.6c-25.1,28.1,67.6,75.7,70.6,42C189.6,127.1,178.3,97.9,156.5,92.3z"/>
<polygon class="st6" points="183.1,157.9 182.5,166.2 190,165.3 194.5,161.2 "/>
<path class="st7" d="M291,162.7"/>
<path class="st6" d="M124.6,100.1c0,31.9,26.2,57.8,58.5,57.8"/>
<path class="st6" d="M183.1,160.9c0-34.9-24.6-63.2-55-63.2"/>
<path class="st8" d="M166.6,133.7c-10.8-11.2-21.6-22.5-32.4-33.7c-4.5-4.7-11.7,2.4-7.2,7.1c10.8,11.2,21.6,22.5,32.4,33.7
	C164,145.4,171.1,138.3,166.6,133.7z"/>
<path class="st1" d="M173.2,79.3c8.6-11.5,26.8-18,40-12.2c20.8,9.1,21.7,45.6,11.1,64.4c-2.2,4-9.2,16.4-21.5,18.6
	C202.1,150.3,154.9,103.7,173.2,79.3z"/>
<polygon class="st9" points="202.8,149.7 207.7,157.5 200,157.5 "/>
<path class="st9" d="M202.8,149.7c18.1-35.2,14.3-73.1-8.3-84.8"/>
<path class="st9" d="M202.8,149.7c-24.5-30.9-28.7-68.3-9.4-83.5"/>
<path class="st10" d="M203.1,108.8c0.8-2.8-0.8-4.9-2.9-5.8c-0.2-2.8-0.5-5.5-0.9-8.3c-0.6-4.2-1.3-8.3-2.2-12.5
	c-0.9-4.3-2.5-8.6-0.8-12.9c0.7-1.7-2.2-2.5-2.9-0.8c-2.6,6.6,1,14.9,2.1,21.6c0.7,4.2,1.2,8.4,1.6,12.5c-1.7,0.3-3.1,1.4-3.7,3.5
	c-2.7,10,3,19,2.4,29c-0.4,6.4,9.6,6.4,10,0C206.4,126.3,200.8,117.4,203.1,108.8z"/>
<path class="st11" d="M180,159.6c0.2,0.3,0.7,0.1,0.9-0.2c0.2-0.3,0.4-0.6,0.6-0.9c0.4-0.3,1.1-0.3,1.4,0.1s0.3,1.1-0.1,1.4"/>
<path class="st11" d="M180.4,157.4c0.7-0.3,1.5,0.2,1.6,0.9c-0.4-0.2-0.8-0.5-1.3-0.7"/>
<path class="st12" d="M126.1,100.7c1-0.8,2-1.6,3-2.4"/>
<path class="st13" d="M126.3,102c0.2-0.5-0.2-1.1-0.7-1.3"/>
<path class="st0" d="M193,66.7c1.3-0.3,2.6-0.6,4-0.8"/>
<path class="st1" d="M100.7,171.3c0.8,2.5,3.5,10.5,10.8,15.6c4.1,2.9,8.9,4.2,53.1-7.2c5.4-1.4,10.3-2.7,11-5.9
	c0.6-2.8-2.2-5.2-16.1-17.5c-9.8-8.7-12.2-10.9-17.1-14.4c-6.6-4.7-9.9-7.1-13.5-7.9c-0.7-0.2-15-3.4-24.3,7.1
	C95,152.2,99.7,168.2,100.7,171.3z"/>
<polygon class="st14" points="175.4,172.3 180.1,168.2 179.3,173.3 181.8,173.7 178.5,175.7 "/>
<path class="st14" d="M175.2,172.8c-42.9,13.3-68.8,7.7-76.3-16.4"/>
<path class="st14" d="M98.9,156.5c13.4-15.1,51.2-7.5,77.1,15.4"/>
<path class="st15" d="M173.7,170.2c-23.5-4.8-47.1-9.3-70.8-13.5c-1.9-0.3-2.3,2.6-0.4,3c23.6,4.3,47.2,8.8,70.8,13.5
	C175.1,173.6,175.6,170.6,173.7,170.2z"/>
</svg>
