<?xml version="1.0" encoding="utf-8"?>
<!-- Generator: Adobe Illustrator 19.1.0, SVG Export Plug-In . SVG Version: 6.00 Build 0)  -->
<svg version="1.1" id="Layer_1" xmlns="http://www.w3.org/2000/svg" xmlns:xlink="http://www.w3.org/1999/xlink" x="0px" y="0px"
	 viewBox="334 -4 1280 800" style="enable-background:new 334 -4 1280 800;" xml:space="preserve">
<style type="text/css">
	.st0{fill:none;stroke:#000000;stroke-miterlimit:10;}
	.st1{fill:#C69C6D;stroke:#000000;stroke-miterlimit:10;}
	.st2{fill:#00BF2C;stroke:#000000;stroke-miterlimit:10;}
	.st3{fill:#00BF2C;}
	.st4{fill:#CE8CFF;stroke:#000000;stroke-miterlimit:10;}
	.st5{fill:#CE8CFF;}
	.st6{fill:#C1272D;stroke:#000000;stroke-miterlimit:10;}
	.st7{fill:#FFFFFF;stroke:#000000;stroke-miterlimit:10;}
	.st8{fill:#C1272D;}
	.st9{fill:#9CB0CF;stroke:#000000;stroke-miterlimit:10;}
	.st10{fill:#9CB0CF;}
	.st11{stroke:#000000;stroke-miterlimit:10;}
	.st12{fill:#C1272D;stroke:#C1272D;stroke-miterlimit:10;}
	.st13{fill:none;stroke:#C1272D;stroke-miterlimit:10;}
	.st14{fill:#060055;stroke:#000000;stroke-miterlimit:10;}
	.st15{fill:#060055;}
</style>
<g>
	<path class="st0" d="M705.8,259.6c-2.1,8.2-4.3,21.4-1.2,37c0.7,3.9,8.1,38,41.7,61.4c35.7,24.8,58.1,7.4,86.9,26.3
		c49,32.2,15.2,103.1,59.5,124.8c17.9,8.8,40.2,5.5,57.1,1"/>
	<path class="st0" d="M671.2,277.1c8.1,0.6,19.5,2.1,32.1,6.8c38.1,14.4,62.6,49.5,63.1,79.9c0.7,44.3-50.2,56.7-50,87.7
		c0.2,26.1,36.4,60.2,180.9,100.4"/>
	<path class="st0" d="M648.6,290.7c7.6-2.1,18.1-4.1,26.2,0c17.1,8.6,2.1,33.3,14.3,57.5c16.9,33.7,63.1,20.7,97.6,60.4
		c14,16.2,21.2,35.3,33.3,68.2c10.2,27.3,9.5,34.9,19,42.9c13.1,10.7,40.7,18.5,107.1,1.9"/>
	<path class="st0" d="M671.5,220.6c-1.9,15.2-1.4,36.5,14.5,54.6c23.8,27.1,57.4,19.9,90,48.5c32.1,28.1,33.8,65.5,33.8,74.5
		c0.2,35.7-21.9,45.6-16.2,67.1c4.8,17.2,26.9,39.8,110.9,58.5"/>
	<path class="st0" d="M647.4,271.3c3.8,5.3,9.5,13.1,16.7,22.4c27.1,35.7,36.7,42.7,44,56.5c15,27.9-6.4,34.3,4.8,64.3
		c0.7,1.9,15.5,39.6,58.3,57.5c30.5,12.7,45.7,2.9,75,13.6c19.8,7.2,43.3,22.6,61.9,58.5"/>
</g>
<path class="st1" d="M424.4,144.5c-2.4,5.7-12.9,29.8-8.8,46.6c8.3,36.5,88.8,58.7,130.9,34.3c5-2.9,11.2-6.6,14-13.5
	c6.9-17-12.1-38.4-44.5-74.9c-11.7-13.1-15.2-16-20.2-18.3c-19.5-9.4-47.8-6-62.4,9.7C429.4,132.8,427.8,136.7,424.4,144.5z"/>
<path class="st2" d="M423.7,148.4c22.1-16.2,83.3,6.2,127.3,46.8"/>
<path class="st2" d="M417.3,160.3c1.9,35.1,43.1,51.5,120.7,48.5"/>
<path class="st3" d="M538,187.4c-1.2,0-7.1-3.5-8.6-3.9c-4.5-1.4-9-1.9-13.6-3.3c-10.2-2.7-20.2-6.6-30.2-10.1
	c-9.8-3.3-19.8-6.4-29.3-10.1c-8.6-3.3-15-8.8-24-11.7c-14.8-4.5-21.2,14.2-6.7,18.7c4.5,1.4,8.1,4.9,12.1,7c4.3,2.1,9,3.7,13.6,5.3
	c10.9,3.7,21.7,7.6,32.6,11.3c9.5,3.3,19,7,29,9.4c8.6,1.9,15.7,7.4,25,7C553.7,206.1,553.7,186.6,538,187.4z"/>
<line class="st0" x1="417.8" y1="164.2" x2="423" y2="142.4"/>
<path class="st1" d="M523.7,58c-19,19.5-22.1,44.8-17.6,62.2c13.1,51.1,105.9,87.9,144.2,66.3c34.7-19.5,29-89.1-12.6-124.4
	c-4.5-3.9-40-33.1-78.5-25C539.9,41.4,528.4,53.1,523.7,58z"/>
<path class="st4" d="M533.9,48.8c0,74.3,48.1,143.1,100.2,143.1"/>
<path class="st4" d="M559.1,37.3c66.6,20.7,102.6,94.9,75,154.6"/>
<path class="st5" d="M624.8,165.6c0,0-0.7,0-1,0c0,0-0.2,0-0.2-0.2c1.2,0.4-0.7-3.9-1.2-5.3c-1.4-3.7-3.3-6.4-6.2-9.6
	c-6.7-7.2-10-16.8-13.6-25.3c-7.6-17.5-9.5-36.8-21.2-53.2c-1.2-1.6-2.6-2.7-4-3.5c-0.2-1-0.5-2.1-1-3.1c-2.1-4.9-5.7-8.2-10.2-9.9
	c5.5-5.5,2.9-16.6-7.9-16.6c-4.5,0-7.9,1.6-10,3.7c-1.4,0.4-2.9,1-4,1.8c-10.9,1.9-11.4,15.2-1.9,18.5c-0.2,1.6,0.2,3.1,1,4.5
	c-1,1.8-1.2,3.9-0.5,6c2.6,8.8,6.4,16.8,11.2,25c2.4,3.9,7.1,5.3,11.7,4.7c1.4,3.1,2.6,6.2,3.3,9.6c1,3.5,3.3,5.5,6.4,6.4
	c2.9,7.8,6.2,15.6,9.8,23.2c2.1,4.3,4,8.8,6.4,12.9c2.1,3.5,5.7,6.2,7.6,9.6c4,7.2,3.3,12.5,11.9,17.7c0.7,0.4,1.4,0.8,2.4,1
	c1.4,3.3,5,5.8,10.5,5.8c8.6,0,12.4-6.2,11.2-11.7C636.5,172,632.9,165.6,624.8,165.6z"/>
<path class="st1" d="M595.1,138.3c-36.9-7.8-74,10.3-93.8,28.5c-59.7,54.8,160.9,147.6,168,81.9C673.9,206.1,647,149.2,595.1,138.3z
	"/>
<polygon class="st6" points="658.4,266.2 657,282.4 674.8,280.6 685.5,272.6 "/>
<path class="st7" d="M915.2,275.5"/>
<path class="st6" d="M519.2,153.5c0,62.2,62.4,112.7,139.2,112.7"/>
<path class="st6" d="M658.4,272c0-68-58.5-123.2-130.9-123.2"/>
<path class="st8" d="M619.1,219c-25.7-21.8-51.4-43.9-77.1-65.7c-10.7-9.2-27.8,4.7-17.1,13.8c25.7,21.8,51.4,43.9,77.1,65.7
	C612.9,241.8,629.8,228,619.1,219z"/>
<path class="st1" d="M634.8,112.9c20.5-22.4,63.8-35.1,95.2-23.8c49.5,17.7,51.6,88.9,26.4,125.6c-5.2,7.8-21.9,32-51.2,36.3
	C703.6,251.4,591.3,160.5,634.8,112.9z"/>
<polygon class="st9" points="705.3,250.2 716.9,265.4 698.6,265.4 "/>
<path class="st9" d="M705.3,250.2c43.1-68.6,34-142.5-19.8-165.3"/>
<path class="st9" d="M705.3,250.2C647,190,637,117,682.9,87.4"/>
<path class="st10" d="M706,170.5c1.9-5.5-1.9-9.6-6.9-11.3c-0.5-5.5-1.2-10.7-2.1-16.2c-1.4-8.2-3.1-16.2-5.2-24.4
	c-2.1-8.4-6-16.8-1.9-25.2c1.7-3.3-5.2-4.9-6.9-1.6c-6.2,12.9,2.4,29,5,42.1c1.7,8.2,2.9,16.4,3.8,24.4c-4,0.6-7.4,2.7-8.8,6.8
	c-6.4,19.5,7.1,37,5.7,56.5c-1,12.5,22.8,12.5,23.8,0C713.9,204.6,700.5,187.2,706,170.5z"/>
<path class="st11" d="M651,269.5c0.5,0.6,1.7,0.2,2.1-0.4c0.5-0.6,1-1.2,1.4-1.8c1-0.6,2.6-0.6,3.3,0.2c0.7,0.8,0.7,2.1-0.2,2.7"/>
<path class="st11" d="M652,265.2c1.7-0.6,3.6,0.4,3.8,1.8c-1-0.4-1.9-1-3.1-1.4"/>
<path class="st12" d="M522.7,154.7c2.4-1.6,4.8-3.1,7.1-4.7"/>
<path class="st13" d="M523.2,157.2c0.5-1-0.5-2.1-1.7-2.5"/>
<path class="st0" d="M682,88.4c3.1-0.6,6.2-1.2,9.5-1.6"/>
<path class="st1" d="M462.3,292.3c1.9,4.9,8.3,20.5,25.7,30.4c9.8,5.7,21.2,8.2,126.4-14c12.9-2.7,24.5-5.3,26.2-11.5
	c1.4-5.5-5.2-10.1-38.3-34.1c-23.3-17-29-21.3-40.7-28.1c-15.7-9.2-23.6-13.8-32.1-15.4c-1.7-0.4-35.7-6.6-57.8,13.8
	C448.7,255.1,459.9,286.3,462.3,292.3z"/>
<polygon class="st14" points="640.1,294.3 651.3,286.3 649.4,296.2 655.3,297 647.4,300.9 "/>
<path class="st14" d="M639.6,295.2c-102.1,25.9-163.7,15-181.6-32"/>
<path class="st14" d="M458,263.5c31.9-29.4,121.9-14.6,183.5,30"/>
<path class="st15" d="M636,290.2c-55.9-9.4-112.1-18.1-168.5-26.3c-4.5-0.6-5.5,5.1-1,5.8c56.2,8.4,112.3,17.2,168.5,26.3
	C639.4,296.8,640.5,290.9,636,290.2z"/>
</svg>
